<?xml version="1.0" encoding="UTF-8" standalone="no"?>
<!-- Created with Inkscape (http://www.inkscape.org/) -->

<svg
   width="296.99997mm"
   height="122.67985mm"
   viewBox="0 0 296.99997 122.67985"
   version="1.1"
   id="svg1"
   xmlns="http://www.w3.org/2000/svg"
   xmlns:svg="http://www.w3.org/2000/svg">
  <defs
     id="defs1" />
  <g
     id="layer1"
     transform="translate(0,-21.112407)">
    <g
       id="g22">
      <path
         id="rect1"
         style="stroke-width:0.264583"
         d="M 154.63397,21.112406 V 133.16913 h -6.13399 V 83.022839 h -10.12806 v 50.146291 h -1.9973 V 93.864555 h -12.55324 v -7.132381 h -4.85035 V 61.910433 h -11.4117 v 71.258697 h -4.27985 V 96.147103 H 91.582007 v 30.225027 h 0.561206 v 1.72599 h -1.812809 v -1.70894 H 84.73488 V 110.98289 H 68.187569 v 22.18624 h -3.42408 V 88.728951 H 43.651082 v 15.977319 h -8.55865 v 28.46286 H 27.389026 V 69.899093 H 10.555945 V 133.16913 H 0 v 10.62313 h 296.99996 v -10.62313 h -2.85306 v -27.83086 h -14.55053 v 27.83086 h -3.13831 V 122.3946 h -2.5678 V 72.000256 H 257.05769 V 122.3946 h -5.70611 V 105.06284 H 223.1068 v 28.10629 h -3.13831 V 88.728951 h -5.70612 V 69.899093 h -19.11563 v 18.829858 h -9.70018 V 72.000256 h -12.26798 v -50.88785 z m 9.36997,5.617229 h 1.81281 v 1.726509 h -1.81281 z m 2.56419,0 h 1.81281 v 1.726509 h -1.81281 z m -9.01754,5.077726 h 1.81281 v 1.725993 h -1.81281 z m 5.12889,10.154936 h 1.81281 v 1.725992 h -1.81281 z m 4.79505,10.154418 h 1.81281 v 1.72651 h -1.81281 z m 2.56419,0 h 1.81281 v 1.72651 h -1.81281 z m -9.92343,5.077727 h 1.81229 v 1.725993 h -1.81229 z m 2.56419,0 h 1.81281 v 1.725993 h -1.81281 z m 7.35924,5.077209 h 1.81281 v 1.72651 h -1.81281 z m -57.14484,2.538863 h 1.81281 v 1.72651 h -1.81281 z m 2.56471,0 h 1.81229 v 1.72651 h -1.81229 z m -5.12889,2.538863 h 1.81281 v 1.725993 h -1.81281 z m 5.12889,0 h 1.81229 v 1.725993 h -1.81229 z m 42.9984,0 h 1.81281 v 1.725993 h -1.81281 z m 4.22249,0 h 1.81281 v 1.725993 h -1.81281 z m -52.34978,2.538347 h 1.81281 v 1.726509 h -1.81281 z m 2.56418,0 h 1.81281 v 1.726509 h -1.81281 z m 2.56471,0 h 1.81229 v 1.726509 h -1.81229 z m -5.12889,2.538863 h 1.81281 v 1.72651 h -1.81281 z m 5.12889,0 h 1.81229 v 1.72651 h -1.81229 z m 48.12729,0 h 1.81229 v 1.72651 h -1.81229 z m -50.692,2.538863 h 1.81281 v 1.72651 h -1.81281 z m 2.56471,0 h 1.81229 v 1.72651 h -1.81229 z m 54.58013,0 h 1.81281 v 1.72651 h -1.81281 z m 91.59389,0.694531 h 1.81229 v 1.72651 h -1.81229 z M 13.752132,76.590674 h 1.812809 v 1.726509 h -1.812809 z m 96.577568,0.913639 h 1.81281 v 1.725993 h -1.81281 z m 2.56418,0 h 1.81281 v 1.725993 h -1.81281 z m 2.56471,0 h 1.81229 v 1.725993 h -1.81229 z m 42.9984,0 h 1.81281 v 1.725993 h -1.81281 z m 5.12889,0 h 1.81229 v 1.725993 h -1.81229 z m 35.75441,0.862997 h 1.81229 v 1.726509 h -1.81229 z m 2.58434,0 h 1.81229 v 1.726509 h -1.81229 z m 64.83635,2.370398 h 1.81281 v 1.726509 h -1.81281 z M 18.880501,81.6684 h 1.81281 v 1.725993 h -1.81281 z m 94.013379,0.913123 h 1.81281 v 1.726509 h -1.81281 z m 2.56471,0 h 1.81229 v 1.726509 h -1.81229 z m 60.34722,0 h 1.81229 v 1.726509 h -1.81229 z m 90.95517,0.695048 h 1.81281 v 1.725992 h -1.81281 z M 18.880501,84.206746 h 1.81281 v 1.72651 h -1.81281 z m 91.449199,0.91364 h 1.81281 v 1.725993 h -1.81281 z m 30.17077,1.332735 h 1.81281 v 1.725993 h -1.81281 z M 18.880501,86.74561 h 1.81281 v 1.726509 h -1.81281 z m 2.564702,0 h 1.812292 v 1.726509 h -1.812292 z m 146.935737,0.913639 h 1.81281 v 1.725993 h -1.81281 z m 2.56418,0 h 1.81281 v 1.725993 h -1.81281 z m 9.98906,0 h 1.8128 v 1.725993 h -1.8128 z m 30.55265,0 h 1.81281 v 1.725993 h -1.81281 z M 18.880501,89.284473 h 1.81281 v 1.725992 h -1.81281 z m 94.013379,0.913122 h 1.81281 v 1.72651 h -1.81281 z m 2.56471,0 h 1.81229 v 1.72651 h -1.81229 z m 30.17076,1.332735 h 1.8123 v 1.72651 h -1.8123 z m -99.355172,0.343132 h 1.812809 v 1.725993 h -1.812809 z m 8.659937,0 h 1.812809 v 1.725993 h -1.812809 z m 2.564184,0 h 1.812809 v 1.725993 h -1.812809 z m 52.831401,0.862996 h 1.81281 v 1.72651 h -1.81281 z m 2.56418,0 h 1.81281 v 1.72651 h -1.81281 z m 2.56471,0 h 1.81229 v 1.72651 h -1.81229 z m 45.56311,0 h 1.81229 v 1.72651 h -1.81229 z m 2.56418,0 h 1.81229 v 1.72651 h -1.81229 z m 12.21993,0 h 1.81229 v 1.72651 h -1.81229 z m 5.12837,0 h 1.8128 v 1.72651 h -1.8128 z m 6.9913,0 h 1.81281 v 1.72651 h -1.81281 z m 2.56418,0 h 1.81281 v 1.72651 h -1.81281 z m -44.86031,1.332736 h 1.8123 v 1.725992 h -1.8123 z m -99.355172,0.342614 h 1.812809 v 1.72651 h -1.812809 z m 8.659937,0 h 1.812809 v 1.72651 h -1.812809 z m 5.128369,0 h 1.812809 v 1.72651 h -1.812809 z m 50.267216,0.863513 h 1.81281 v 1.725993 h -1.81281 z m 153.86709,0.694532 h 1.81281 v 1.726509 h -1.81281 z m 2.56419,0 h 1.81281 v 1.726509 h -1.81281 z M 16.316317,96.900545 h 1.812809 v 1.72651 h -1.812809 z m 2.564184,0 h 1.81281 v 1.72651 h -1.81281 z m 152.064619,0.913123 h 1.81281 v 1.726509 h -1.81281 z m 90.68749,0.695048 h 1.81229 v 1.726514 h -1.81229 z M 13.752132,99.439408 h 1.812809 v 1.725992 h -1.812809 z m 2.564185,0 h 1.812809 v 1.725992 h -1.812809 z m 2.564184,0 h 1.81281 v 1.725992 h -1.81281 z m 30.864266,0.116272 h 1.812809 v 1.72599 h -1.812809 z m 82.031683,1.26659 h 1.81281 v 1.72599 h -1.81281 z m -109.42536,0.61702 h 1.81281 v 1.72651 h -1.81281 z m -8.598958,0.71158 h 1.812809 v 1.72599 h -1.812809 z m 85.38807,0.20722 h 1.812808 v 1.72651 h -1.812808 z m 16.318388,0.5333 h 1.81229 v 1.72651 h -1.81229 z m 48.12729,0 h 1.81229 v 1.72651 h -1.81229 z m 26.90378,0 h 1.81281 v 1.72651 h -1.81281 z m -93.913643,2.00557 h 1.812293 v 1.72651 h -1.812293 z m 46.488633,1.86552 h 1.81281 v 1.72651 h -1.81281 z m 2.5647,0 h 1.8123 v 1.72651 h -1.8123 z m -90.695235,0.94206 h 1.812809 v 1.72651 h -1.812809 z m 123.435875,0.26406 h 1.81229 v 1.72651 h -1.81229 z m 2.56419,0 h 1.8128 v 1.72651 h -1.8128 z m 24.3396,0 h 1.8128 v 1.72651 h -1.8128 z m 2.56418,0 h 1.81281 v 1.72651 h -1.81281 z m -169.703337,0.59945 h 1.812809 v 1.72599 h -1.812809 z m 189.598247,0.26407 h 1.81281 v 1.72599 h -1.81281 z m -87.2324,0.46922 h 1.81281 v 1.72651 h -1.81281 z m 2.56418,0 h 1.81281 v 1.72651 h -1.81281 z m 2.5647,0 h 1.8123 v 1.72651 h -1.8123 z m -130.064409,0.293 h 1.812293 v 1.726 h -1.812293 z m 3.31556,0 h 1.81281 v 1.726 h -1.81281 z m 152.064619,0.91313 h 1.81281 v 1.72651 h -1.81281 z m 90.68749,0.45578 h 1.81229 v 1.726 h -1.81229 z m 2.56418,0 h 1.81281 v 1.726 h -1.81281 z m -31.33503,0.40721 h 1.81229 v 1.72651 h -1.81229 z m -92.36129,0.46974 h 1.81281 v 1.72599 h -1.81281 z m -91.662107,0.34262 h 1.812809 v 1.72651 h -1.812809 z m 8.659936,0 h 1.812809 v 1.72651 h -1.812809 z m 175.363461,1.72651 h 1.81229 v 1.72651 h -1.81229 z m -192.263721,0.81235 h 1.812809 v 1.72651 h -1.812809 z m 5.676139,0 h 1.812809 v 1.72651 h -1.812809 z m 2.564185,0 h 1.812809 v 1.72651 h -1.812809 z m 2.564701,0 h 1.812292 v 1.72651 h -1.812292 z m 3.531051,0 h 1.812809 v 1.72651 h -1.812809 z m 2.564184,0 h 1.812809 v 1.72651 h -1.812809 z m 2.564185,0 h 1.812809 v 1.72651 h -1.812809 z m 11.279931,0.863 h 1.81281 v 1.72651 h -1.81281 z m 6.824907,0 h 1.812292 v 1.72651 h -1.812292 z m 3.007568,0 h 1.812809 v 1.72651 H 81.17489 Z m 31.71899,0 h 1.81281 v 1.72651 h -1.81281 z m 2.56471,0 h 1.81229 v 1.72651 h -1.81229 z m 48.12729,0 h 1.81229 v 1.72651 h -1.81229 z m 26.90378,0 h 1.81281 v 1.72651 h -1.81281 z m 39.80791,0.86351 h 1.81229 v 1.72599 h -1.81229 z m 10.56473,0 h 1.81281 v 1.72599 h -1.81281 z m -59.92812,1.67535 h 1.8128 v 1.72651 h -1.8128 z m 26.90378,0 h 1.81281 v 1.72651 h -1.81281 z m -81.18988,0.46974 h 1.81281 v 1.72599 h -1.81281 z m 2.56419,0 h 1.81281 v 1.72599 h -1.81281 z m 2.56418,0 h 1.81281 v 1.72599 h -1.81281 z m 13.8529,0.86299 h 1.8123 v 1.72651 h -1.8123 z M 40.598039,120.1291 h 1.812809 v 1.72651 h -1.812809 z m 34.983394,0 h 1.812293 v 1.72651 h -1.812293 z m 18.4304,0 h 1.812292 v 1.72651 h -1.812292 z m 2.564184,0 h 1.812293 v 1.72651 h -1.812293 z m 170.184963,1.22783 h 1.81281 v 1.72651 h -1.81281 z m -250.444663,0.9307 h 1.812809 v 1.72651 h -1.812809 z m 2.564184,0 h 1.81281 v 1.72651 h -1.81281 z m 2.564702,0 h 1.812292 v 1.72651 h -1.812292 z m 211.416557,1.77663 h 1.81229 v 1.72651 h -1.81229 z m -151.68687,4.03696 h 1.812809 v 1.72651 H 81.17489 Z m 4.027145,0.80977 h 1.812809 v 1.726 h -1.812809 z m 2.564184,0 h 1.812809 v 1.726 h -1.812809 z m 2.564185,0 h 1.812809 v 1.726 h -1.812809 z m 90.603776,1.90635 h 1.8128 v 1.72599 h -1.8128 z m 26.90378,0 h 1.81281 v 1.72599 h -1.81281 z m -121.81272,0.40462 h 1.812809 v 1.72651 H 86.02524 Z m 2.668571,0 h 1.812809 v 1.72651 h -1.812809 z m 141.603759,0.45837 h 1.81229 v 1.72651 h -1.81229 z m 27.91303,0 h 1.8128 v 1.72651 h -1.8128 z m 2.56418,0 h 1.81281 v 1.72651 h -1.81281 z m -117.71013,0.46974 h 1.81281 v 1.726 h -1.81281 z m 2.5647,0 h 1.8123 v 1.726 h -1.8123 z m 39.93452,3.90726 h 1.81229 v 1.72651 h -1.81229 z m 42.169,0.70073 h 1.81281 v 1.72599 h -1.81281 z m 15.69362,2.53835 h 1.8128 v 1.72651 h -1.8128 z" />
    </g>
  </g>
</svg>
